<?xml version="1.0" encoding="UTF-8" standalone="no"?>
<svg xmlns="http://www.w3.org/2000/svg" xmlns:xlink="http://www.w3.org/1999/xlink" contentStyleType="text/css" height="351px" preserveAspectRatio="none" style="width:528px;height:351px;background:#FFFFFF;" version="1.1" viewBox="0 0 528 351" width="528px" zoomAndPan="magnify"><defs/><g><rect fill="#FFFFFF" height="64.2656" style="stroke:#181818;stroke-width:1.0;" width="10" x="28.5" y="46.2969"/><rect fill="#FFFFFF" height="52.1328" style="stroke:#181818;stroke-width:1.0;" width="10" x="28.5" y="255.2266"/><rect fill="#FFFFFF" height="79.3984" style="stroke:#181818;stroke-width:1.0;" width="10" x="241.5" y="110.5625"/><rect fill="#FFFFFF" height="29.1328" style="stroke:#181818;stroke-width:1.0;" width="10" x="241.5" y="226.0938"/><rect fill="#FFFFFF" height="71.2656" style="stroke:#181818;stroke-width:1.0;" width="10" x="447.5" y="154.8281"/><line style="stroke:#181818;stroke-width:0.5;stroke-dasharray:5.0,5.0;" x1="33" x2="33" y1="36.2969" y2="316.3594"/><line style="stroke:#181818;stroke-width:0.5;stroke-dasharray:5.0,5.0;" x1="246" x2="246" y1="36.2969" y2="316.3594"/><line style="stroke:#181818;stroke-width:0.5;stroke-dasharray:5.0,5.0;" x1="452" x2="452" y1="36.2969" y2="316.3594"/><rect fill="#E2E2F0" height="30.2969" rx="2.5" ry="2.5" style="stroke:#181818;stroke-width:0.5;" width="57" x="5" y="5"/><text fill="#000000" font-family="sans-serif" font-size="14" lengthAdjust="spacing" textLength="43" x="12" y="24.9951">Main()</text><rect fill="#E2E2F0" height="30.2969" rx="2.5" ry="2.5" style="stroke:#181818;stroke-width:0.5;" width="57" x="5" y="315.3594"/><text fill="#000000" font-family="sans-serif" font-size="14" lengthAdjust="spacing" textLength="43" x="12" y="335.3545">Main()</text><rect fill="#E2E2F0" height="30.2969" rx="2.5" ry="2.5" style="stroke:#181818;stroke-width:0.5;" width="213" x="140" y="5"/><text fill="#000000" font-family="sans-serif" font-size="14" lengthAdjust="spacing" textLength="199" x="147" y="24.9951">GetUrlContentLengthAsync</text><rect fill="#E2E2F0" height="30.2969" rx="2.5" ry="2.5" style="stroke:#181818;stroke-width:0.5;" width="213" x="140" y="315.3594"/><text fill="#000000" font-family="sans-serif" font-size="14" lengthAdjust="spacing" textLength="199" x="147" y="335.3545">GetUrlContentLengthAsync</text><rect fill="#E2E2F0" height="30.2969" rx="2.5" ry="2.5" style="stroke:#181818;stroke-width:0.5;" width="127" x="389" y="5"/><text fill="#000000" font-family="sans-serif" font-size="14" lengthAdjust="spacing" textLength="113" x="396" y="24.9951">GetStringAsync</text><rect fill="#E2E2F0" height="30.2969" rx="2.5" ry="2.5" style="stroke:#181818;stroke-width:0.5;" width="127" x="389" y="315.3594"/><text fill="#000000" font-family="sans-serif" font-size="14" lengthAdjust="spacing" textLength="113" x="396" y="335.3545">GetStringAsync</text><rect fill="#FFFFFF" height="64.2656" style="stroke:#181818;stroke-width:1.0;" width="10" x="28.5" y="46.2969"/><rect fill="#FFFFFF" height="52.1328" style="stroke:#181818;stroke-width:1.0;" width="10" x="28.5" y="255.2266"/><rect fill="#FFFFFF" height="79.3984" style="stroke:#181818;stroke-width:1.0;" width="10" x="241.5" y="110.5625"/><rect fill="#FFFFFF" height="29.1328" style="stroke:#181818;stroke-width:1.0;" width="10" x="241.5" y="226.0938"/><rect fill="#FFFFFF" height="71.2656" style="stroke:#181818;stroke-width:1.0;" width="10" x="447.5" y="154.8281"/><rect fill="#EEEEEE" height="3" style="stroke:#EEEEEE;stroke-width:1.0;" width="521" x="0" y="66.8633"/><line style="stroke:#000000;stroke-width:1.0;" x1="0" x2="521" y1="66.8633" y2="66.8633"/><line style="stroke:#000000;stroke-width:1.0;" x1="0" x2="521" y1="69.8633" y2="69.8633"/><rect fill="#EEEEEE" height="23.1328" style="stroke:#000000;stroke-width:2.0;" width="55" x="233" y="56.2969"/><text fill="#000000" font-family="sans-serif" font-size="13" font-weight="bold" lengthAdjust="spacing" textLength="41" x="239" y="72.3638">Start</text><polygon fill="#181818" points="229.5,106.5625,239.5,110.5625,229.5,114.5625,233.5,110.5625" style="stroke:#181818;stroke-width:1.0;"/><line style="stroke:#181818;stroke-width:1.0;" x1="33.5" x2="235.5" y1="110.5625" y2="110.5625"/><text fill="#000000" font-family="sans-serif" font-size="13" lengthAdjust="spacing" textLength="184" x="40.5" y="105.4966">GetUrlContentLengthAsync()</text><polygon fill="#181818" points="435.5,150.8281,445.5,154.8281,435.5,158.8281,439.5,154.8281" style="stroke:#181818;stroke-width:1.0;"/><line style="stroke:#181818;stroke-width:1.0;" x1="251.5" x2="441.5" y1="154.8281" y2="154.8281"/><text fill="#000000" font-family="sans-serif" font-size="13" lengthAdjust="spacing" textLength="88" x="258.5" y="134.6294">getStringTask</text><text fill="#000000" font-family="sans-serif" font-size="13" lengthAdjust="spacing" textLength="173" x="262.5" y="149.7622">= client.GetStringAsync(...)</text><line style="stroke:#181818;stroke-width:1.0;" x1="251.5" x2="293.5" y1="188.9609" y2="188.9609"/><line style="stroke:#181818;stroke-width:1.0;" x1="293.5" x2="293.5" y1="188.9609" y2="201.9609"/><line style="stroke:#181818;stroke-width:1.0;" x1="246.5" x2="293.5" y1="201.9609" y2="201.9609"/><polygon fill="#181818" points="256.5,197.9609,246.5,201.9609,256.5,205.9609,252.5,201.9609" style="stroke:#181818;stroke-width:1.0;"/><text fill="#000000" font-family="sans-serif" font-size="13" lengthAdjust="spacing" textLength="141" x="258.5" y="183.895">DoIndependentWork()</text><polygon fill="#181818" points="262.5,222.0938,252.5,226.0938,262.5,230.0938,258.5,226.0938" style="stroke:#181818;stroke-width:1.0;"/><line style="stroke:#181818;stroke-width:1.0;" x1="256.5" x2="451.5" y1="226.0938" y2="226.0938"/><text fill="#000000" font-family="sans-serif" font-size="13" lengthAdjust="spacing" textLength="127" x="268.5" y="221.0278">await getStringTask</text><polygon fill="#181818" points="49.5,251.2266,39.5,255.2266,49.5,259.2266,45.5,255.2266" style="stroke:#181818;stroke-width:1.0;"/><line style="stroke:#181818;stroke-width:1.0;" x1="43.5" x2="245.5" y1="255.2266" y2="255.2266"/><text fill="#000000" font-family="sans-serif" font-size="13" lengthAdjust="spacing" textLength="35" x="55.5" y="250.1606">await</text><rect fill="#EEEEEE" height="3" style="stroke:#EEEEEE;stroke-width:1.0;" width="521" x="0" y="283.793"/><line style="stroke:#000000;stroke-width:1.0;" x1="0" x2="521" y1="283.793" y2="283.793"/><line style="stroke:#000000;stroke-width:1.0;" x1="0" x2="521" y1="286.793" y2="286.793"/><rect fill="#EEEEEE" height="23.1328" style="stroke:#000000;stroke-width:2.0;" width="68" x="226.5" y="273.2266"/><text fill="#000000" font-family="sans-serif" font-size="13" font-weight="bold" lengthAdjust="spacing" textLength="49" x="232.5" y="289.2935">return</text><!--MD5=[91e15f09e79fc16d043586451e1b1521]
@startuml
participant "Main()" as Main
==Start==
activate Main
Main -> "GetUrlContentLengthAsync" as gucl: GetUrlContentLengthAsync()
deactivate Main
activate gucl
gucl -> "GetStringAsync" as gsa++: getStringTask\n = client.GetStringAsync(...)
gucl -> gucl- -: DoIndependentWork()
gsa -> gucl: await getStringTask
deactivate gsa
activate gucl
gucl -> Main: await
deactivate gucl
activate Main
== return ==
@enduml

PlantUML version 1.2022.3beta2(Unknown compile time)
(GPL source distribution)
Java Runtime: Java(TM) SE Runtime Environment
JVM: Java HotSpot(TM) 64-Bit Server VM
Default Encoding: UTF-8
Language: en
Country: US
--></g></svg>