<?xml version="1.0" encoding="UTF-8" standalone="no"?>
<svg xmlns="http://www.w3.org/2000/svg" xmlns:xlink="http://www.w3.org/1999/xlink" contentStyleType="text/css" height="435px" preserveAspectRatio="none" style="width:272px;height:435px;background:#FFFFFF;" version="1.1" viewBox="0 0 272 435" width="272px" zoomAndPan="magnify"><defs/><g><rect fill="#FFFFFF" height="292.5234" style="stroke:#181818;stroke-width:1.0;" width="10" x="28.5" y="46.2969"/><rect fill="#FFFFFF" height="87.3984" style="stroke:#181818;stroke-width:1.0;" width="10" x="201.5" y="193.1563"/><rect fill="#FFFFFF" height="58.2656" style="stroke:#181818;stroke-width:1.0;" width="10" x="241" y="222.2891"/><line style="stroke:#181818;stroke-width:0.5;stroke-dasharray:5.0,5.0;" x1="33" x2="33" y1="36.2969" y2="399.9531"/><line style="stroke:#181818;stroke-width:0.5;stroke-dasharray:5.0,5.0;" x1="206.5" x2="206.5" y1="120.0781" y2="399.9531"/><line style="stroke:#181818;stroke-width:0.5;stroke-dasharray:5.0,5.0;" x1="245.5" x2="245.5" y1="161.375" y2="399.9531"/><rect fill="#E2E2F0" height="30.2969" rx="2.5" ry="2.5" style="stroke:#181818;stroke-width:0.5;" width="57" x="5" y="5"/><text fill="#000000" font-family="sans-serif" font-size="14" lengthAdjust="spacing" textLength="43" x="12" y="24.9951">Main()</text><rect fill="#E2E2F0" height="30.2969" rx="2.5" ry="2.5" style="stroke:#181818;stroke-width:0.5;" width="57" x="5" y="398.9531"/><text fill="#000000" font-family="sans-serif" font-size="14" lengthAdjust="spacing" textLength="43" x="12" y="418.9482">Main()</text><rect fill="#E2E2F0" height="30.2969" rx="2.5" ry="2.5" style="stroke:#181818;stroke-width:0.5;" width="30" x="191.5" y="398.9531"/><text fill="#000000" font-family="sans-serif" font-size="14" lengthAdjust="spacing" textLength="16" x="198.5" y="418.9482">t1</text><rect fill="#E2E2F0" height="30.2969" rx="2.5" ry="2.5" style="stroke:#181818;stroke-width:0.5;" width="29" x="231.5" y="398.9531"/><text fill="#000000" font-family="sans-serif" font-size="14" lengthAdjust="spacing" textLength="15" x="238.5" y="418.9482">t2</text><rect fill="#FFFFFF" height="292.5234" style="stroke:#181818;stroke-width:1.0;" width="10" x="28.5" y="46.2969"/><rect fill="#FFFFFF" height="87.3984" style="stroke:#181818;stroke-width:1.0;" width="10" x="201.5" y="193.1563"/><rect fill="#FFFFFF" height="58.2656" style="stroke:#181818;stroke-width:1.0;" width="10" x="241" y="222.2891"/><rect fill="#EEEEEE" height="3" style="stroke:#EEEEEE;stroke-width:1.0;" width="265.5" x="0" y="66.8633"/><line style="stroke:#000000;stroke-width:1.0;" x1="0" x2="265.5" y1="66.8633" y2="66.8633"/><line style="stroke:#000000;stroke-width:1.0;" x1="0" x2="265.5" y1="69.8633" y2="69.8633"/><rect fill="#EEEEEE" height="23.1328" style="stroke:#000000;stroke-width:2.0;" width="55" x="105.25" y="56.2969"/><text fill="#000000" font-family="sans-serif" font-size="13" font-weight="bold" lengthAdjust="spacing" textLength="41" x="111.25" y="72.3638">Start</text><polygon fill="#181818" points="179.5,106.5625,189.5,110.5625,179.5,114.5625,183.5,110.5625" style="stroke:#181818;stroke-width:1.0;"/><line style="stroke:#181818;stroke-width:1.0;" x1="38.5" x2="185.5" y1="110.5625" y2="110.5625"/><text fill="#000000" font-family="sans-serif" font-size="13" lengthAdjust="spacing" textLength="129" x="45.5" y="105.4966">t1 = new Thread(...)</text><rect fill="#E2E2F0" height="30.2969" rx="2.5" ry="2.5" style="stroke:#181818;stroke-width:0.5;" width="30" x="191.5" y="89.4297"/><text fill="#000000" font-family="sans-serif" font-size="14" lengthAdjust="spacing" textLength="16" x="198.5" y="109.4248">t1</text><polygon fill="#181818" points="219.5,147.8594,229.5,151.8594,219.5,155.8594,223.5,151.8594" style="stroke:#181818;stroke-width:1.0;"/><line style="stroke:#181818;stroke-width:1.0;" x1="38.5" x2="225.5" y1="151.8594" y2="151.8594"/><text fill="#000000" font-family="sans-serif" font-size="13" lengthAdjust="spacing" textLength="129" x="45.5" y="146.7935">t2 = new Thread(...)</text><rect fill="#E2E2F0" height="30.2969" rx="2.5" ry="2.5" style="stroke:#181818;stroke-width:0.5;" width="29" x="231.5" y="130.7266"/><text fill="#000000" font-family="sans-serif" font-size="14" lengthAdjust="spacing" textLength="15" x="238.5" y="150.7217">t2</text><polygon fill="#181818" points="189.5,189.1563,199.5,193.1563,189.5,197.1563,193.5,193.1563" style="stroke:#181818;stroke-width:1.0;"/><line style="stroke:#181818;stroke-width:1.0;" x1="38.5" x2="195.5" y1="193.1563" y2="193.1563"/><text fill="#000000" font-family="sans-serif" font-size="13" lengthAdjust="spacing" textLength="58" x="45.5" y="188.0903">t1.Start()</text><polygon fill="#181818" points="229,218.2891,239,222.2891,229,226.2891,233,222.2891" style="stroke:#181818;stroke-width:1.0;"/><line style="stroke:#181818;stroke-width:1.0;" x1="38.5" x2="235" y1="222.2891" y2="222.2891"/><text fill="#000000" font-family="sans-serif" font-size="13" lengthAdjust="spacing" textLength="58" x="45.5" y="217.2231">t2.Start()</text><polygon fill="#181818" points="189.5,247.4219,199.5,251.4219,189.5,255.4219,193.5,251.4219" style="stroke:#181818;stroke-width:1.0;"/><line style="stroke:#181818;stroke-width:1.0;" x1="38.5" x2="195.5" y1="251.4219" y2="251.4219"/><text fill="#000000" font-family="sans-serif" font-size="13" lengthAdjust="spacing" textLength="50" x="45.5" y="246.356">t1.Join()</text><polygon fill="#181818" points="49.5,276.5547,39.5,280.5547,49.5,284.5547,45.5,280.5547" style="stroke:#181818;stroke-width:1.0;"/><line style="stroke:#181818;stroke-width:1.0;stroke-dasharray:2.0,2.0;" x1="43.5" x2="205.5" y1="280.5547" y2="280.5547"/><text fill="#000000" font-family="sans-serif" font-size="13" lengthAdjust="spacing" textLength="67" x="55.5" y="275.4888">t1 finished</text><polygon fill="#181818" points="234,305.6875,244,309.6875,234,313.6875,238,309.6875" style="stroke:#181818;stroke-width:1.0;"/><line style="stroke:#181818;stroke-width:1.0;" x1="38.5" x2="240" y1="309.6875" y2="309.6875"/><text fill="#000000" font-family="sans-serif" font-size="13" lengthAdjust="spacing" textLength="50" x="45.5" y="304.6216">t2.Join()</text><polygon fill="#181818" points="44.5,334.8203,34.5,338.8203,44.5,342.8203,40.5,338.8203" style="stroke:#181818;stroke-width:1.0;"/><line style="stroke:#181818;stroke-width:1.0;stroke-dasharray:2.0,2.0;" x1="38.5" x2="245" y1="338.8203" y2="338.8203"/><text fill="#000000" font-family="sans-serif" font-size="13" lengthAdjust="spacing" textLength="67" x="50.5" y="333.7544">t2 finished</text><rect fill="#EEEEEE" height="3" style="stroke:#EEEEEE;stroke-width:1.0;" width="265.5" x="0" y="367.3867"/><line style="stroke:#000000;stroke-width:1.0;" x1="0" x2="265.5" y1="367.3867" y2="367.3867"/><line style="stroke:#000000;stroke-width:1.0;" x1="0" x2="265.5" y1="370.3867" y2="370.3867"/><rect fill="#EEEEEE" height="23.1328" style="stroke:#000000;stroke-width:2.0;" width="68" x="98.75" y="356.8203"/><text fill="#000000" font-family="sans-serif" font-size="13" font-weight="bold" lengthAdjust="spacing" textLength="49" x="104.75" y="372.8872">return</text><!--MD5=[7d49d8e073610e0c781f4a7fae81f134]
@startuml
participant "Main()" as Main
==Start==
activate Main
Main -> t1**: t1 = new Thread(...)
Main -> t2**: t2 = new Thread(...)
Main -> t1++: t1.Start()
Main -> t2++: t2.Start()
Main -> t1: t1.Join()
t1 - -> Main: t1 finished
deactivate t1
deactivate t2
Main -> t2: t2.Join()
t2 - -> Main: t2 finished
deactivate Main
== return ==
@enduml

PlantUML version 1.2022.3beta2(Unknown compile time)
(GPL source distribution)
Java Runtime: Java(TM) SE Runtime Environment
JVM: Java HotSpot(TM) 64-Bit Server VM
Default Encoding: UTF-8
Language: en
Country: US
--></g></svg>