<svg xmlns="http://www.w3.org/2000/svg" width="450" height="425">
    <style>
        .C{text-anchor:middle}.E{writing-mode:lr-tb}.F{stroke-linecap:round}.G{stroke-linejoin:round}
    </style>
    <path fill="#ccf" stroke="#000" stroke-width="3.5"
        d="M378.25 227.25c0 98.031-79.469 177.5-177.5 177.5s-177.5-79.469-177.5-177.5 79.469-177.5 177.5-177.5 177.5 79.469 177.5 177.5"
        class="F G" />
    <g fill-rule="evenodd">
        <path d="M394 48v350h4V48z" />
        <path stroke="#000" stroke-width=".8pt" d="m396 416.464-16-27.68h32z" />
    </g>
    <text xml:space="preserve" x="-235.112" y="438.111" class="C" font-family="Bitstream Vera Sans"
        transform="rotate(270)">
        <tspan x="-235.112" y="438.111" class="E" font-family="Century Schoolbook L" font-size="40">Time</tspan>
    </text>
    <text xml:space="preserve" x="198.408" y="35.892" class="C" font-family="Bitstream Vera Sans">
        <tspan x="198.408" y="35.892" class="E" font-family="Century Schoolbook L" font-size="40">Process</tspan>
    </text>
    <text xml:space="preserve" x="118.408" y="125.242" class="C" font-family="Bitstream Vera Sans">
        <tspan x="118.408" y="125.242" class="E" font-family="Century Schoolbook L" font-size="20">Thread #1</tspan>
    </text>
    <text xml:space="preserve" x="282.408" y="125.892" class="C" font-family="Bitstream Vera Sans">
        <tspan x="282.408" y="125.892" class="E" font-family="Century Schoolbook L" font-size="20">Thread #2</tspan>
    </text>
    <path fill="#ccf" stroke="#000" stroke-width="4"
        d="M117.991 145a5 5 0 1 1 0-10m0 20a5 5 0 1 0 0-10m0 20a5 5 0 1 1 0-10m0 20a5 5 0 1 0 0-10M284 185a5 5 0 1 1 0-10m0 20a5 5 0 1 0 0-10m0 20a5 5 0 1 1 0-10m0 20a5 5 0 1 0 0-10m-1 20a5 5 0 1 1 0-10m0 20a5 5 0 1 0 0-10m0 20a5 5 0 1 1 0-10m0 20a5 5 0 1 0 0-10m-166 20a5 5 0 1 1 0-10m0 20a5 5 0 1 0 0-10m0 20a5 5 0 1 1 0-10m0 20a5 5 0 1 0 0-10m-1 20a5 5 0 1 1 0-10m0 20a5 5 0 1 0 0-10m0 20a5 5 0 1 1 0-10m0 20a5 5 0 1 0 0-10"
        class="F G" />
</svg>
