<?xml version="1.0" encoding="UTF-8" standalone="no"?>
<svg width="1200" height="628" viewBox="0 0 12.5 6.542" version="1.1" id="svg1539" xmlns="http://www.w3.org/2000/svg" xmlns:svg="http://www.w3.org/2000/svg">
  <defs id="defs1543" />
  <path fill="#9266cc" d="m 2.585,2.81 c 0,-0.377 0.188,-0.754 0,-0.942 C 2.397,1.68 2.303,2.056 2.397,2.056 c 0.133,0 0.188,0.188 0.094,0.47 -0.094,0.283 0.094,0.377 0.094,0.283 z m -0.365,0 c 0,-0.377 0.189,-0.754 0,-0.942 C 2.032,1.68 1.938,2.056 2.032,2.056 2.165,2.056 2.22,2.244 2.126,2.526 2.032,2.809 2.22,2.903 2.22,2.809 Z" id="path1529" />
  <path fill="#aa8dd8" d="m 5.126,4.632 c 0,0.094 -0.095,0.094 -0.189,0.094 H 2.773 C 2.303,4.726 2.089,4.436 2.02,4.162 1.926,3.785 2.209,3.127 2.02,3.032 1.832,2.938 1.738,2.938 1.738,2.75 c 0,-0.188 0.42,-0.495 0.659,-0.376 0.376,0.188 0.26,0.652 0.188,0.94 -0.083,0.332 0.105,0.339 0.47,0.471 0.465,0.168 1.16,0.418 1.318,0.47 0.282,0.095 0.753,0.283 0.753,0.377 z" id="path1531" />
  <path fill="#ffcc4d" d="m 2.766,3.691 c 0.272,0.094 0.362,0.847 1.268,0.847 0.6,0 0.815,-0.516 0.815,-1.035 0,-0.52 -0.487,-0.941 -1.087,-0.941 -0.6,0 -1.082,1.1 -0.996,1.13 z" id="path1533" />
  <path fill="#ffac33" d="m 4.082,4.538 c 0.161,0 0.32,-0.045 0.46,-0.133 A 0.924,0.924 0 0 0 4.952,3.831 C 5.096,3.232 4.744,2.623 4.168,2.474 3.473,2.293 2.764,2.734 2.59,3.457 a 0.19,0.19 0 0 0 0.132,0.229 0.18,0.18 0 0 0 0.22,-0.137 c 0.125,-0.522 0.636,-0.84 1.138,-0.71 0.383,0.1 0.616,0.503 0.52,0.9 A 0.552,0.552 0 0 1 4.356,4.082 0.515,0.515 0 0 1 3.951,4.145 0.39,0.39 0 0 1 3.709,3.959 0.42,0.42 0 0 1 3.665,3.651 0.286,0.286 0 0 1 3.792,3.473 c 0.063,-0.04 0.143,-0.067 0.21,-0.032 0.122,0.062 0.122,0.25 0.032,0.344 -0.071,0.074 0.15,0.1 0.271,0 A 0.349,0.349 0 0 0 4.405,3.39 0.463,0.463 0 0 0 4.09,3.075 0.614,0.614 0 0 0 3.605,3.15 0.66,0.66 0 0 0 3.314,3.56 0.805,0.805 0 0 0 3.399,4.153 c 0.104,0.18 0.268,0.306 0.464,0.357 a 0.883,0.883 0 0 0 0.22,0.028 z" id="path1535" />
  <path d="m 5.518,4.064 q 0.694,0 0.9,-0.24 Q 6.513,3.719 6.513,3.59 6.513,3.365 6.34,3.26 6.2,3.172 5.998,3.166 q -0.271,0 -0.48,0.017 z m 0.021,-1.08 q 0.216,0 0.342,-0.022 Q 6.006,2.938 6.109,2.889 6.212,2.839 6.28,2.762 6.349,2.684 6.349,2.585 q 0,-0.273 -0.461,-0.273 -0.203,0 -0.37,0.048 V 2.985 Z M 5.651,4.243 Q 5.124,4.243 5.124,4.145 5.124,4.12 5.147,4.1 5.171,4.078 5.22,4.078 q 0.05,0 0.06,-0.003 V 2.38 Q 5.25,2.372 5.205,2.328 5.163,2.282 5.163,2.246 5.163,2.208 5.194,2.193 5.27,2.165 5.497,2.133 5.724,2.101 5.939,2.101 q 0.22,0 0.366,0.061 0.287,0.12 0.287,0.406 0,0.23 -0.202,0.386 -0.088,0.062 -0.105,0.07 0.073,0.006 0.195,0.08 0.123,0.075 0.199,0.193 0.077,0.119 0.077,0.291 0,0.176 -0.083,0.301 Q 6.446,4.244 5.651,4.244 Z M 7.323,4.245 Q 7.267,4.245 7.207,4.218 7.147,4.193 7.147,4.145 L 7.153,3.888 q 0,-1.476 -0.009,-1.73 0,-0.047 0.076,-0.047 0.055,0 0.115,0.027 0.06,0.026 0.06,0.072 0,0.061 -0.002,0.105 Q 7.39,2.471 7.39,3.888 l 0.008,0.31 q 0,0.047 -0.075,0.047 z M 8.436,4.053 q 0.139,0 0.246,-0.075 0.108,-0.075 0.174,-0.205 0.065,-0.13 0.065,-0.331 0,-0.2 -0.09,-0.337 -0.09,-0.137 -0.295,-0.137 -0.204,0 -0.354,0.194 -0.148,0.194 -0.148,0.425 0,0.466 0.402,0.466 z M 8.455,4.265 Q 8.135,4.265 7.968,4.083 7.802,3.9 7.802,3.59 7.802,3.35 7.951,3.093 8.009,2.985 8.071,2.918 8.132,2.851 8.173,2.851 q 0.039,0 0.053,0.02 0.152,-0.115 0.333,-0.115 0.181,0 0.314,0.089 0.28,0.184 0.28,0.634 0,0.304 -0.184,0.535 Q 8.77,4.265 8.455,4.265 Z M 9.948,3.981 q 0.257,0 0.438,-0.201 0.126,-0.14 0.136,-0.354 0.003,-0.079 0.003,-0.318 0,-0.003 -0.036,-0.003 -0.034,0 -0.056,-0.023 -0.084,-0.117 -0.274,-0.117 -0.088,0 -0.178,0.053 Q 9.892,3.07 9.828,3.16 9.682,3.35 9.682,3.576 q 0,0.405 0.266,0.405 z m 0.058,0.744 Q 9.802,4.725 9.678,4.652 9.554,4.581 9.471,4.452 9.46,4.435 9.46,4.4 9.46,4.368 9.51,4.314 9.56,4.26 9.602,4.26 q 0.045,0 0.063,0.041 0.049,0.114 0.124,0.161 0.078,0.049 0.223,0.049 0.147,0 0.26,-0.057 0.114,-0.057 0.181,-0.162 0.069,-0.102 0.069,-0.245 V 3.91 Q 10.349,4.192 9.972,4.192 9.732,4.192 9.59,4.035 9.448,3.876 9.448,3.572 q 0,-0.304 0.216,-0.56 0.217,-0.257 0.497,-0.257 0.28,0 0.36,0.133 L 10.516,2.805 q 0,-0.047 0.07,-0.047 0.053,0 0.113,0.026 0.06,0.024 0.06,0.074 -0.013,0.223 -0.013,0.29 v 0.9 q 0,0.22 -0.103,0.37 -0.101,0.15 -0.268,0.228 -0.167,0.078 -0.369,0.078 z" id="path1537" />
</svg>
